<mxfile host="app.diagrams.net" modified="2023-06-26T12:15:08.444Z" agent="Mozilla/5.0 (X11; Ubuntu; Linux x86_64; rv:109.0) Gecko/20100101 Firefox/114.0" etag="uGtajW2rURNPFNo6HPFX" version="21.5.0">
  <diagram name="Seite-1" id="m5NEmmGPePFnHgauDJvO">
    <mxGraphModel dx="1434" dy="746" grid="1" gridSize="10" guides="1" tooltips="1" connect="1" arrows="1" fold="1" page="0" pageScale="1" pageWidth="827" pageHeight="1169" math="0" shadow="0">
      <root>
        <mxCell id="0" />
        <mxCell id="1" parent="0" />
        <mxCell id="VRncQhEibWRbkZHBDrH2-31" value="creates" style="rounded=0;orthogonalLoop=1;jettySize=auto;html=1;entryX=0;entryY=1;entryDx=0;entryDy=0;endArrow=none;endFill=0;" parent="1" source="VRncQhEibWRbkZHBDrH2-1" target="VRncQhEibWRbkZHBDrH2-29" edge="1">
          <mxGeometry x="-0.1889" relative="1" as="geometry">
            <mxPoint as="offset" />
          </mxGeometry>
        </mxCell>
        <mxCell id="VRncQhEibWRbkZHBDrH2-35" value="creates" style="rounded=0;orthogonalLoop=1;jettySize=auto;html=1;entryX=0;entryY=1;entryDx=0;entryDy=0;endArrow=none;endFill=0;" parent="1" source="VRncQhEibWRbkZHBDrH2-1" target="VRncQhEibWRbkZHBDrH2-15" edge="1">
          <mxGeometry x="-0.2016" y="-1" relative="1" as="geometry">
            <mxPoint as="offset" />
          </mxGeometry>
        </mxCell>
        <mxCell id="VRncQhEibWRbkZHBDrH2-36" value="accesses" style="rounded=0;orthogonalLoop=1;jettySize=auto;html=1;entryX=0;entryY=1;entryDx=0;entryDy=0;endArrow=none;endFill=0;" parent="1" source="VRncQhEibWRbkZHBDrH2-1" target="VRncQhEibWRbkZHBDrH2-26" edge="1">
          <mxGeometry x="-0.6387" y="-3" relative="1" as="geometry">
            <mxPoint as="offset" />
          </mxGeometry>
        </mxCell>
        <mxCell id="VRncQhEibWRbkZHBDrH2-41" value="manages" style="rounded=0;orthogonalLoop=1;jettySize=auto;html=1;entryX=0;entryY=0.5;entryDx=0;entryDy=0;endArrow=none;endFill=0;" parent="1" source="VRncQhEibWRbkZHBDrH2-1" target="VRncQhEibWRbkZHBDrH2-40" edge="1">
          <mxGeometry x="-0.4667" relative="1" as="geometry">
            <mxPoint as="offset" />
          </mxGeometry>
        </mxCell>
        <mxCell id="VRncQhEibWRbkZHBDrH2-1" value="CourseLeader" style="shape=umlActor;verticalLabelPosition=bottom;verticalAlign=top;html=1;outlineConnect=0;" parent="1" vertex="1">
          <mxGeometry x="80" y="520" width="40" height="80" as="geometry" />
        </mxCell>
        <mxCell id="VRncQhEibWRbkZHBDrH2-10" value="JHaaS Portal" style="shape=umlFrame;whiteSpace=wrap;html=1;pointerEvents=0;width=100;height=30;" parent="1" vertex="1">
          <mxGeometry x="240" y="120" width="480" height="520" as="geometry" />
        </mxCell>
        <mxCell id="VRncQhEibWRbkZHBDrH2-38" value="manages" style="edgeStyle=orthogonalEdgeStyle;rounded=0;orthogonalLoop=1;jettySize=auto;html=1;entryX=1;entryY=0.5;entryDx=0;entryDy=0;endArrow=none;endFill=0;" parent="1" source="VRncQhEibWRbkZHBDrH2-11" target="VRncQhEibWRbkZHBDrH2-37" edge="1">
          <mxGeometry x="-0.3333" relative="1" as="geometry">
            <mxPoint as="offset" />
          </mxGeometry>
        </mxCell>
        <mxCell id="VRncQhEibWRbkZHBDrH2-11" value="Admin" style="shape=umlActor;verticalLabelPosition=bottom;verticalAlign=top;html=1;outlineConnect=0;" parent="1" vertex="1">
          <mxGeometry x="840" y="760" width="40" height="80" as="geometry" />
        </mxCell>
        <mxCell id="VRncQhEibWRbkZHBDrH2-18" value="&lt;div&gt;accepts or&lt;br&gt;&lt;/div&gt;&lt;div&gt;rejects&lt;br&gt;&lt;/div&gt;" style="rounded=0;orthogonalLoop=1;jettySize=auto;html=1;entryX=0;entryY=0.5;entryDx=0;entryDy=0;endArrow=none;endFill=0;" parent="1" source="VRncQhEibWRbkZHBDrH2-12" target="VRncQhEibWRbkZHBDrH2-15" edge="1">
          <mxGeometry x="-0.1111" relative="1" as="geometry">
            <mxPoint as="offset" />
          </mxGeometry>
        </mxCell>
        <mxCell id="VRncQhEibWRbkZHBDrH2-30" value="&lt;div&gt;accepts or&lt;/div&gt;&lt;div&gt;rejects&lt;br&gt;&lt;/div&gt;" style="rounded=0;orthogonalLoop=1;jettySize=auto;html=1;entryX=0;entryY=0;entryDx=0;entryDy=0;endArrow=none;endFill=0;" parent="1" source="VRncQhEibWRbkZHBDrH2-12" target="VRncQhEibWRbkZHBDrH2-29" edge="1">
          <mxGeometry x="-0.1889" relative="1" as="geometry">
            <mxPoint as="offset" />
          </mxGeometry>
        </mxCell>
        <mxCell id="VRncQhEibWRbkZHBDrH2-12" value="Government" style="shape=umlActor;verticalLabelPosition=bottom;verticalAlign=top;html=1;outlineConnect=0;" parent="1" vertex="1">
          <mxGeometry x="80" y="160" width="40" height="80" as="geometry" />
        </mxCell>
        <mxCell id="VRncQhEibWRbkZHBDrH2-15" value="&lt;div&gt;Pending&lt;br&gt;&lt;/div&gt;&lt;div&gt;JH-Request&lt;br&gt;&lt;/div&gt;" style="ellipse;whiteSpace=wrap;html=1;" parent="1" vertex="1">
          <mxGeometry x="300" y="160" width="120" height="80" as="geometry" />
        </mxCell>
        <mxCell id="VRncQhEibWRbkZHBDrH2-20" value="&lt;div&gt;&amp;lt;&amp;lt;extend&amp;gt;&amp;gt;&lt;/div&gt;&lt;div&gt;{{ if accepted }}&lt;/div&gt;" style="edgeStyle=orthogonalEdgeStyle;rounded=0;orthogonalLoop=1;jettySize=auto;html=1;entryX=1;entryY=0.5;entryDx=0;entryDy=0;dashed=1;" parent="1" source="VRncQhEibWRbkZHBDrH2-19" target="VRncQhEibWRbkZHBDrH2-15" edge="1">
          <mxGeometry relative="1" as="geometry" />
        </mxCell>
        <mxCell id="VRncQhEibWRbkZHBDrH2-32" value="&lt;div&gt;&amp;lt;&amp;lt;extend&amp;gt;&amp;gt;&lt;br&gt;&lt;/div&gt;&lt;div&gt;{{ if accepted }}&lt;/div&gt;" style="rounded=0;orthogonalLoop=1;jettySize=auto;html=1;exitX=0;exitY=1;exitDx=0;exitDy=0;entryX=1;entryY=0;entryDx=0;entryDy=0;dashed=1;" parent="1" source="VRncQhEibWRbkZHBDrH2-19" target="VRncQhEibWRbkZHBDrH2-29" edge="1">
          <mxGeometry relative="1" as="geometry" />
        </mxCell>
        <mxCell id="VRncQhEibWRbkZHBDrH2-19" value="&lt;div&gt;Accepted&lt;br&gt;&lt;/div&gt;&lt;div&gt;JH-Request&lt;br&gt;&lt;/div&gt;" style="ellipse;whiteSpace=wrap;html=1;" parent="1" vertex="1">
          <mxGeometry x="540" y="160" width="120" height="80" as="geometry" />
        </mxCell>
        <mxCell id="VRncQhEibWRbkZHBDrH2-25" value="&lt;div&gt;proccesses&lt;/div&gt;" style="rounded=0;orthogonalLoop=1;jettySize=auto;html=1;entryX=1;entryY=0.5;entryDx=0;entryDy=0;endArrow=none;endFill=0;" parent="1" source="VRncQhEibWRbkZHBDrH2-24" target="VRncQhEibWRbkZHBDrH2-19" edge="1">
          <mxGeometry x="-0.1111" relative="1" as="geometry">
            <mxPoint as="offset" />
          </mxGeometry>
        </mxCell>
        <mxCell id="VRncQhEibWRbkZHBDrH2-27" value="&lt;div&gt;deploys and degrades&lt;/div&gt;&lt;div&gt;according to Request&lt;br&gt; &lt;/div&gt;" style="rounded=0;orthogonalLoop=1;jettySize=auto;html=1;entryX=1;entryY=0;entryDx=0;entryDy=0;endArrow=none;endFill=0;" parent="1" source="VRncQhEibWRbkZHBDrH2-24" target="VRncQhEibWRbkZHBDrH2-26" edge="1">
          <mxGeometry x="-0.3726" y="3" relative="1" as="geometry">
            <mxPoint x="1" as="offset" />
          </mxGeometry>
        </mxCell>
        <mxCell id="VRncQhEibWRbkZHBDrH2-24" value="System" style="shape=umlActor;verticalLabelPosition=bottom;verticalAlign=top;html=1;outlineConnect=0;" parent="1" vertex="1">
          <mxGeometry x="840" y="160" width="40" height="80" as="geometry" />
        </mxCell>
        <mxCell id="VRncQhEibWRbkZHBDrH2-26" value="&lt;div&gt;JH-Instance&lt;/div&gt;" style="ellipse;whiteSpace=wrap;html=1;" parent="1" vertex="1">
          <mxGeometry x="540" y="340" width="120" height="80" as="geometry" />
        </mxCell>
        <mxCell id="VRncQhEibWRbkZHBDrH2-29" value="&lt;div&gt;Pending JH-&lt;/div&gt;&lt;div&gt;Change-Request&lt;br&gt;&lt;/div&gt;" style="ellipse;whiteSpace=wrap;html=1;" parent="1" vertex="1">
          <mxGeometry x="300" y="340" width="120" height="80" as="geometry" />
        </mxCell>
        <mxCell id="VRncQhEibWRbkZHBDrH2-37" value="&lt;div&gt;CourseLeaders&lt;/div&gt;and Government" style="ellipse;whiteSpace=wrap;html=1;" parent="1" vertex="1">
          <mxGeometry x="540" y="760" width="120" height="80" as="geometry" />
        </mxCell>
        <mxCell id="VRncQhEibWRbkZHBDrH2-40" value="Participation" style="ellipse;whiteSpace=wrap;html=1;" parent="1" vertex="1">
          <mxGeometry x="420" y="520" width="120" height="80" as="geometry" />
        </mxCell>
        <mxCell id="r29OZEEfRJMbwZsmj4MY-1" value="Authentik" style="shape=umlFrame;whiteSpace=wrap;html=1;pointerEvents=0;width=100;height=30;" vertex="1" parent="1">
          <mxGeometry x="240" y="720" width="480" height="160" as="geometry" />
        </mxCell>
        <mxCell id="r29OZEEfRJMbwZsmj4MY-3" value="applies for" style="edgeStyle=orthogonalEdgeStyle;rounded=0;orthogonalLoop=1;jettySize=auto;html=1;endArrow=none;endFill=0;" edge="1" parent="1" source="r29OZEEfRJMbwZsmj4MY-2" target="VRncQhEibWRbkZHBDrH2-40">
          <mxGeometry x="-0.6" relative="1" as="geometry">
            <mxPoint as="offset" />
          </mxGeometry>
        </mxCell>
        <mxCell id="r29OZEEfRJMbwZsmj4MY-4" value="&lt;div&gt;participates&lt;/div&gt;&lt;div&gt;{{ if accepted }}&lt;br&gt;&lt;/div&gt;" style="rounded=0;orthogonalLoop=1;jettySize=auto;html=1;entryX=1;entryY=1;entryDx=0;entryDy=0;endArrow=none;endFill=0;" edge="1" parent="1" source="r29OZEEfRJMbwZsmj4MY-2" target="VRncQhEibWRbkZHBDrH2-26">
          <mxGeometry x="-0.3726" y="-3" relative="1" as="geometry">
            <mxPoint x="840" y="550" as="sourcePoint" />
            <mxPoint x="1" as="offset" />
          </mxGeometry>
        </mxCell>
        <mxCell id="r29OZEEfRJMbwZsmj4MY-2" value="Participant" style="shape=umlActor;verticalLabelPosition=bottom;verticalAlign=top;html=1;outlineConnect=0;" vertex="1" parent="1">
          <mxGeometry x="840" y="520" width="40" height="80" as="geometry" />
        </mxCell>
        <mxCell id="r29OZEEfRJMbwZsmj4MY-12" value="&lt;div&gt;creates and&lt;br&gt;&lt;/div&gt;&lt;div&gt;authenticates&lt;/div&gt;&lt;div&gt;with&lt;br&gt;&lt;/div&gt;" style="rounded=0;orthogonalLoop=1;jettySize=auto;html=1;exitX=0;exitY=0.5;exitDx=0;exitDy=0;endArrow=none;endFill=0;" edge="1" parent="1" source="r29OZEEfRJMbwZsmj4MY-5" target="r29OZEEfRJMbwZsmj4MY-6">
          <mxGeometry x="0.3333" relative="1" as="geometry">
            <mxPoint x="130" y="830" as="targetPoint" />
            <mxPoint as="offset" />
          </mxGeometry>
        </mxCell>
        <mxCell id="r29OZEEfRJMbwZsmj4MY-5" value="&lt;div&gt;Authentik&lt;/div&gt;&lt;div&gt;Account&lt;br&gt;&lt;/div&gt;" style="ellipse;whiteSpace=wrap;html=1;" vertex="1" parent="1">
          <mxGeometry x="300" y="760" width="120" height="80" as="geometry" />
        </mxCell>
        <mxCell id="r29OZEEfRJMbwZsmj4MY-6" value="Portal User" style="shape=umlActor;verticalLabelPosition=bottom;verticalAlign=top;html=1;outlineConnect=0;" vertex="1" parent="1">
          <mxGeometry x="80" y="760" width="40" height="80" as="geometry" />
        </mxCell>
      </root>
    </mxGraphModel>
  </diagram>
</mxfile>
